<?xml version="1.0" encoding="UTF-8" standalone="no"?>
<svg
   viewBox="0 0 5.821 5.821"
   height="22"
   width="22"
   version="1.1"
   id="svg33"
   sodipodi:docname="xopp-document-export-pdf-python.svg"
   inkscape:version="1.4.2 (ebf0e94, 2025-05-08)"
   xmlns:inkscape="http://www.inkscape.org/namespaces/inkscape"
   xmlns:sodipodi="http://sodipodi.sourceforge.net/DTD/sodipodi-0.dtd"
   xmlns:xlink="http://www.w3.org/1999/xlink"
   xmlns="http://www.w3.org/2000/svg"
   xmlns:svg="http://www.w3.org/2000/svg">
  <sodipodi:namedview
     id="namedview33"
     pagecolor="#ffffff"
     bordercolor="#000000"
     borderopacity="0.25"
     inkscape:showpageshadow="2"
     inkscape:pageopacity="0.0"
     inkscape:pagecheckerboard="0"
     inkscape:deskcolor="#d1d1d1"
     inkscape:zoom="51.425948"
     inkscape:cx="10.0144"
     inkscape:cy="10.286636"
     inkscape:window-width="1920"
     inkscape:window-height="1011"
     inkscape:window-x="0"
     inkscape:window-y="0"
     inkscape:window-maximized="1"
     inkscape:current-layer="svg33" />
  <defs
     id="defs22">
    <linearGradient
       id="a">
      <stop
         style="stop-color:#3689e6;stop-opacity:1"
         offset="0"
         id="stop1" />
      <stop
         style="stop-color:#64baff;stop-opacity:1"
         offset="1"
         id="stop2" />
    </linearGradient>
    <linearGradient
       id="c">
      <stop
         style="stop-color:#c6f27b;stop-opacity:1"
         offset="0"
         id="stop3" />
      <stop
         style="stop-color:#93d049;stop-opacity:1"
         offset="1"
         id="stop4" />
    </linearGradient>
    <linearGradient
       id="b">
      <stop
         style="stop-color:#c396eb;stop-opacity:1"
         offset="0"
         id="stop5" />
      <stop
         style="stop-color:#9d68d7;stop-opacity:1"
         offset="1"
         id="stop6" />
    </linearGradient>
    <linearGradient
       id="h">
      <stop
         offset="0"
         style="stop-color:#f4f4f4;stop-opacity:1"
         id="stop7" />
      <stop
         offset="1"
         style="stop-color:#dbdbdb;stop-opacity:1"
         id="stop8" />
    </linearGradient>
    <linearGradient
       id="g">
      <stop
         offset="0"
         style="stop-color:#0d52bf;stop-opacity:1"
         id="stop9" />
      <stop
         offset="1"
         style="stop-color:#3689e6;stop-opacity:.99425286"
         id="stop10" />
    </linearGradient>
    <linearGradient
       id="f">
      <stop
         offset="0"
         style="stop-color:#efdfc4;stop-opacity:1"
         id="stop11" />
      <stop
         offset="1"
         style="stop-color:#e9c998;stop-opacity:1"
         id="stop12" />
    </linearGradient>
    <linearGradient
       id="e">
      <stop
         style="stop-color:#f9f9f9;stop-opacity:1"
         offset="0"
         id="stop13" />
      <stop
         style="stop-color:#d8d8d8;stop-opacity:1"
         offset="1"
         id="stop14" />
    </linearGradient>
    <linearGradient
       id="d">
      <stop
         style="stop-color:#efdfc4;stop-opacity:1"
         offset="0"
         id="stop15" />
      <stop
         style="stop-color:#e7c591;stop-opacity:1"
         offset="1"
         id="stop16" />
    </linearGradient>
    <linearGradient
       xlink:href="#h"
       id="l"
       gradientUnits="userSpaceOnUse"
       gradientTransform="matrix(.4418 0 0 .43526 22.121 -.095)"
       x1="25.132"
       y1=".985"
       x2="25.132"
       y2="47.013" />
    <linearGradient
       xlink:href="#i"
       id="n"
       gradientUnits="userSpaceOnUse"
       gradientTransform="matrix(.1169 0 0 .11516 .176 -.298)"
       x1="21.128"
       y1="50.844"
       x2="21.128"
       y2=".299" />
    <linearGradient
       id="i">
      <stop
         style="stop-color:#d4d4d4;stop-opacity:1"
         offset="0"
         id="stop17" />
      <stop
         style="stop-color:#fafafa;stop-opacity:1"
         offset="1"
         id="stop18" />
    </linearGradient>
    <linearGradient
       xlink:href="#i"
       id="m"
       gradientUnits="userSpaceOnUse"
       gradientTransform="matrix(.1169 0 0 .11516 .176 291.145)"
       x1="21.128"
       y1="50.844"
       x2="21.128"
       y2="-1.999" />
    <linearGradient
       xlink:href="#i"
       id="j"
       gradientUnits="userSpaceOnUse"
       gradientTransform="matrix(.1169 0 0 .11516 .176 291.145)"
       x1="21.128"
       y1="50.844"
       x2="21.128"
       y2=".299" />
    <linearGradient
       id="k">
      <stop
         offset="0"
         style="stop-color:#fff;stop-opacity:1"
         id="stop19" />
      <stop
         offset=".2"
         style="stop-color:#fff;stop-opacity:.23529412"
         id="stop20" />
      <stop
         offset=".783"
         style="stop-color:#fff;stop-opacity:.15686275"
         id="stop21" />
      <stop
         offset="1"
         style="stop-color:#fff;stop-opacity:.39215687"
         id="stop22" />
    </linearGradient>
    <clipPath
       clipPathUnits="userSpaceOnUse"
       id="o">
      <path
         style="display:inline;fill:url(#j);fill-opacity:1;stroke:none;stroke-width:.12033"
         d="M.936 291.444v5.291h4.091v-3.704l-1.587-1.587H.936z"
         id="path22" />
    </clipPath>
    <linearGradient
       id="a-3"
       x1="47.667"
       x2="544.30298"
       y1="363.37601"
       y2="-63.911999"
       gradientTransform="matrix(0.00304824,0,0,-0.00307804,1.3964944,3.6434044)"
       gradientUnits="userSpaceOnUse">
      <stop
         offset="0"
         style="stop-color:#5a9fd4"
         id="stop1-6" />
      <stop
         offset="1"
         style="stop-color:#306998"
         id="stop2-7" />
    </linearGradient>
    <linearGradient
       id="b-5"
       x1="736.30499"
       x2="558.95697"
       y1="-322.52399"
       y2="-71.607002"
       gradientTransform="matrix(0.00304824,0,0,-0.00307804,1.3964944,3.6434044)"
       gradientUnits="userSpaceOnUse">
      <stop
         offset="0"
         style="stop-color:#ffd43b"
         id="stop3-3" />
      <stop
         offset="1"
         style="stop-color:#ffe873"
         id="stop4-5" />
    </linearGradient>
  </defs>
  <path
     style="display:inline;fill:url(#m);fill-opacity:1;stroke:none;stroke-width:.264583;stroke-linecap:round;stroke-linejoin:round;stroke-miterlimit:4;stroke-dasharray:none;stroke-opacity:1"
     d="M.936 291.444v5.291h4.091v-3.704l-1.587-1.587H.936z"
     transform="translate(0 -291.18)"
     id="path23" />
  <path
     style="display:inline;fill:url(#n);fill-opacity:1;stroke:none;stroke-width:.12033"
     d="M.936 0v5.292h4.091V1.588L3.44 0z"
     id="path24" />
  <path
     style="opacity:.1;fill:#000;stroke:none;stroke-width:.264583;stroke-linecap:round;stroke-linejoin:round;stroke-miterlimit:4;stroke-dasharray:none;stroke-opacity:1;paint-order:stroke markers fill;stop-color:#000"
     d="M3.44 293.031h1.587v.265H3.44z"
     transform="translate(0 -291.18)"
     id="path25" />
  <path
     style="display:inline;fill:none;fill-opacity:1;stroke:#555761;stroke-width:.26458333;stroke-opacity:1;stroke-miterlimit:4;stroke-dasharray:none;stroke-linejoin:round;stroke-linecap:round"
     d="M.936 291.444v5.291h4.091v-3.704l-1.587-1.587H.936z"
     transform="translate(0 -291.18)"
     id="path26" />
  <path
     style="fill:#fafafa;stroke:#555761;stroke-width:.26458333;stroke-linecap:round;stroke-linejoin:round;stroke-opacity:1;stroke-miterlimit:4;stroke-dasharray:none"
     d="M5.027 293.031H3.44v-1.587z"
     transform="translate(0 -291.18)"
     id="path27" />
  <text
     xml:space="preserve"
     style="font-size:2.40974px;line-height:1.25;font-family:sans-serif;stroke-width:.361461"
     x="1.28"
     y="4.579"
     transform="scale(.92111 1.08564)"
     id="text27" />
  <path
     style="fill:none;stroke:#000;stroke-width:.264591px;stroke-linecap:butt;stroke-linejoin:miter;stroke-opacity:1"
     d="M1.323.265Z"
     id="path28" />
  <path
     style="display:inline;fill:none;fill-opacity:1;stroke:#fff;stroke-width:.52916667;stroke-miterlimit:4;stroke-dasharray:none;stroke-opacity:1;opacity:.2"
     d="m5.027 293.031-1.587-1.587H.936"
     clip-path="url(#o)"
     transform="translate(0 -291.18)"
     id="path29" />
  <path
     style="fill:none;stroke:#f91703;stroke-width:.264591;stroke-linecap:round;stroke-linejoin:miter;stroke-miterlimit:4;stroke-dasharray:none;stroke-opacity:1"
     d="M1.588.265v1.323l.529-.265.529.265V.265Z"
     id="path30" />
  <g
     aria-label="PDF"
     style="font-size:1.94473px;line-height:1.25;display:none;stroke-width:0.291709"
     id="g31">
    <path
       d="m 2.286,4.18 q 0,0.086 -0.024,0.167 Q 2.239,4.427 2.189,4.488 2.139,4.55 2.064,4.588 1.989,4.623 1.885,4.623 H 1.613 V 5.094 H 1.383 V 3.756 h 0.493 q 0.105,0 0.182,0.032 0.077,0.03 0.127,0.086 Q 2.237,3.93 2.261,4.008 2.286,4.086 2.286,4.18 Z M 2.054,4.185 Q 2.054,4.081 2.003,4.028 1.953,3.974 1.85,3.974 H 1.613 v 0.434 h 0.244 q 0.051,0 0.088,-0.016 Q 1.982,4.375 2.005,4.346 2.031,4.316 2.042,4.276 2.054,4.234 2.054,4.185 Z m 1.371,0.23 Q 3.425,4.583 3.383,4.71 3.342,4.836 3.27,4.921 3.199,5.007 3.1,5.051 3.003,5.094 2.89,5.094 H 2.446 V 3.756 h 0.397 q 0.128,0 0.234,0.04 0.107,0.038 0.184,0.119 0.077,0.08 0.12,0.205 0.044,0.124 0.044,0.295 z m -0.232,0 q 0,-0.116 -0.027,-0.2 Q 3.141,4.131 3.094,4.078 3.048,4.024 2.982,3.998 2.917,3.973 2.839,3.973 H 2.676 v 0.905 h 0.195 q 0.07,0 0.128,-0.03 Q 3.058,4.818 3.101,4.761 3.144,4.702 3.168,4.616 3.193,4.529 3.193,4.416 Z M 3.827,3.973 V 4.387 H 4.389 V 4.603 H 3.827 V 5.094 H 3.597 V 3.756 h 0.81 v 0.217 z"
       style="font-weight:700;font-family:'Liberation Sans Narrow';-inkscape-font-specification:'Liberation Sans Narrow Bold';fill:#f91703"
       transform="matrix(1.00691,0,0,1.02142,0.061,-0.176)"
       id="path31" />
  </g>
  <path
     style="fill:none;stroke:#f91703;stroke-width:.264591;stroke-linecap:round;stroke-linejoin:miter;stroke-miterlimit:4;stroke-dasharray:none;stroke-opacity:1"
     d="M1.588.395v1.457l.529-.264.529.264V.395z"
     id="path32" />
  <path
     style="fill:none;stroke:#fd4737;stroke-width:.264591;stroke-linecap:butt;stroke-linejoin:miter;stroke-miterlimit:4;stroke-dasharray:none;stroke-opacity:1"
     d="M2.646.926V.395H1.588v.531"
     id="path33" />
  <path
     d="M 2.9650048,2.4459712 C 2.851746,2.4465132 2.7439063,2.4562675 2.6485304,2.4730667 2.3683637,2.5223803 2.3174243,2.6258848 2.3174243,2.8171785 v 0.2519873 h 0.6616702 v 0.083996 H 2.0692304 c -0.1923775,0 -0.360911,0.1154265 -0.4134761,0.3354413 -0.060694,0.2525293 -0.063403,0.4096827 0,0.6730502 0.047146,0.1961708 0.159321,0.3354412 0.3516985,0.3354412 h 0.2276015 v -0.302385 c 0,-0.2183891 0.189126,-0.4113085 0.4134761,-0.4113085 h 0.6611281 c 0.1842489,0 0.3311061,-0.1517343 0.3311061,-0.336525 V 2.8171785 c 0,-0.1793717 -0.1511925,-0.3143069 -0.3311061,-0.3441118 C 3.1958578,2.4540999 3.0782637,2.4454293 2.9650048,2.4459712 M 2.6068034,2.648645 c 0.068281,0 0.124097,0.0569 0.124097,0.1262646 0,0.069364 -0.055817,0.1257227 -0.124097,0.1257227 -0.06828,5.409e-4 -0.124097,-0.055817 -0.124097,-0.1251808 0,-0.069906 0.055817,-0.1268065 0.124097,-0.1268065"
     style="fill:url(#a-3);stroke-width:0.00541908"
     id="path2" />
  <path
     d="m 3.7231346,3.1537036 v 0.2937143 c 0,0.2281434 -0.1934613,0.419437 -0.4134761,0.419437 H 2.6485304 c -0.1809974,0 -0.3311061,0.1549858 -0.3311061,0.3365251 v 0.6302394 c 0,0.1793717 0.1560697,0.2850438 0.3311061,0.336525 0.2097185,0.061778 0.4102246,0.072616 0.6611281,0 0.1669078,-0.04823 0.3311061,-0.1452313 0.3311061,-0.336525 V 4.5810901 H 2.9796364 v -0.083996 h 0.9922341 c 0.1923775,0 0.2639094,-0.1343933 0.331106,-0.3354412 0.069364,-0.2075509 0.066113,-0.4069732 0,-0.6725083 -0.047688,-0.1912934 -0.1381866,-0.335441 -0.331106,-0.335441 z m -0.3717491,1.59592 c 0.068822,0 0.124097,0.056358 0.124097,0.1257227 0,0.069906 -0.055817,0.1262647 -0.124097,0.1262647 -0.068281,0 -0.124097,-0.0569 -0.124097,-0.1262647 0,-0.069364 0.055816,-0.1257227 0.124097,-0.1257227"
     style="fill:url(#b-5);stroke-width:0.00541908"
     id="path4" />
</svg>
