<?xml version="1.0" encoding="UTF-8" standalone="no"?>
<svg
   width="24"
   height="24"
   fill="none"
   stroke="currentColor"
   stroke-width="2"
   stroke-linecap="round"
   stroke-linejoin="round"
   version="1.1"
   id="svg3"
   sodipodi:docname="xopp-document-export-pdf.svg"
   inkscape:version="1.4.2 (ebf0e94, 2025-05-08)"
   xmlns:inkscape="http://www.inkscape.org/namespaces/inkscape"
   xmlns:sodipodi="http://sodipodi.sourceforge.net/DTD/sodipodi-0.dtd"
   xmlns="http://www.w3.org/2000/svg"
   xmlns:svg="http://www.w3.org/2000/svg">
  <defs
     id="defs3">
    <linearGradient
       id="a-3"
       x1="47.667"
       x2="544.30298"
       y1="363.37601"
       y2="-63.911999"
       gradientTransform="matrix(0.01152058,0,0,-0.0116332,5.5095064,14.565692)"
       gradientUnits="userSpaceOnUse">
      <stop
         offset="0"
         style="stop-color:#5a9fd4"
         id="stop1-6" />
      <stop
         offset="1"
         style="stop-color:#306998"
         id="stop2-7" />
    </linearGradient>
    <linearGradient
       id="b-5"
       x1="736.30499"
       x2="558.95697"
       y1="-322.52399"
       y2="-71.607002"
       gradientTransform="matrix(0.01152058,0,0,-0.0116332,5.5095064,14.565692)"
       gradientUnits="userSpaceOnUse">
      <stop
         offset="0"
         style="stop-color:#ffd43b"
         id="stop3-3" />
      <stop
         offset="1"
         style="stop-color:#ffe873"
         id="stop4-5" />
    </linearGradient>
  </defs>
  <sodipodi:namedview
     id="namedview3"
     pagecolor="#ffffff"
     bordercolor="#000000"
     borderopacity="0.25"
     inkscape:showpageshadow="2"
     inkscape:pageopacity="0.0"
     inkscape:pagecheckerboard="0"
     inkscape:deskcolor="#d1d1d1"
     inkscape:zoom="33.333333"
     inkscape:cx="12"
     inkscape:cy="12"
     inkscape:window-width="1920"
     inkscape:window-height="1011"
     inkscape:window-x="0"
     inkscape:window-y="0"
     inkscape:window-maximized="1"
     inkscape:current-layer="svg3" />
  <path
     d="M14.5 2H6a2 2 0 0 0-2 2v16a2 2 0 0 0 2 2h12a2 2 0 0 0 2-2V7.5L14.5 2z"
     style="stroke:#bdbdbd;stroke-opacity:1"
     id="path1" />
  <path
     style="stroke:#bdbdbd;stroke-opacity:1"
     d="M14 2v6h6"
     id="path2" />
  <path
     style="fill:#ed1b24;fill-opacity:1;stroke:#ed1b24;stroke-width:1.73427;stroke-linecap:round;stroke-linejoin:round;stroke-opacity:1"
     d="M2.867 8.867h8.266v3.266H2.867z"
     id="path3" />
  <path
     d="m 11.437565,10.04009 c -0.428053,0.0021 -0.835624,0.03891 -1.19609,0.102406 -1.0588666,0.186376 -1.2513886,0.577563 -1.2513886,1.300542 v 0.952366 H 11.490816 V 12.71286 H 8.0520584 c -0.727076,0 -1.364034,0.436245 -1.5627,1.267773 -0.229388,0.954414 -0.239626,1.548363 0,2.543739 0.178185,0.741412 0.602141,1.267773 1.329216,1.267773 h 0.860202 v -1.142839 c 0,-0.825384 0.714786,-1.554508 1.5626986,-1.554508 h 2.498681 c 0.696353,0 1.251388,-0.573467 1.251388,-1.271869 v -2.379891 c 0,-0.677921 -0.571419,-1.187897 -1.251388,-1.300543 -0.430101,-0.07168 -0.874538,-0.104453 -1.302591,-0.102405 m -1.353794,0.765989 c 0.258063,0 0.469015,0.21505 0.469015,0.477207 0,0.262156 -0.210956,0.475159 -0.469015,0.475159 -0.2580576,0.002 -0.4690136,-0.210956 -0.4690136,-0.47311 0,-0.264205 0.210956,-0.479255 0.4690136,-0.479255"
     style="fill:url(#a-3);stroke-width:0.020481"
     id="path2-6" />
  <path
     d="m 14.302855,12.714908 v 1.110069 c 0,0.86225 -0.731171,1.585229 -1.562699,1.585229 h -2.498681 c -0.6840646,0 -1.2513886,0.585756 -1.2513886,1.271869 v 2.381939 c 0,0.677921 0.589853,1.0773 1.2513886,1.271869 0.792614,0.233485 1.550411,0.274446 2.498681,0 0.630814,-0.182281 1.251388,-0.54889 1.251388,-1.271869 V 18.1096 h -2.49868 v -0.317456 h 3.750068 c 0.727076,0 0.997425,-0.507929 1.251389,-1.267773 0.262155,-0.784422 0.249869,-1.538123 0,-2.541691 -0.180233,-0.722978 -0.522265,-1.267772 -1.251389,-1.267772 z m -1.404996,6.031651 c 0.260108,0 0.469015,0.213 0.469015,0.475158 0,0.264204 -0.210956,0.477208 -0.469015,0.477208 -0.258062,0 -0.469014,-0.215049 -0.469014,-0.477208 0,-0.262155 0.210952,-0.475158 0.469014,-0.475158"
     style="fill:url(#b-5);stroke-width:0.020481"
     id="path4" />
</svg>
